<!--
  PLACEHOLDER — development artwork, awaiting real product photography.
  Generated by scripts/generate-product-placeholders.mjs (batting-pads, variant 2).
  Do not retouch by hand: re-run the script, or replace this file with the real
  photograph at the same path and drop `isPlaceholder` from the product entry.
-->
<svg xmlns="http://www.w3.org/2000/svg" viewBox="0 0 800 1000" width="800" height="1000" role="img" aria-label="Elite Leg Guards placeholder">
  <defs>
    <radialGradient id="halo" cx="50%" cy="48%" r="54%">
      <stop offset="0%" stop-color="#ded8cf" stop-opacity=".22"/>
      <stop offset="100%" stop-color="#ded8cf" stop-opacity="0"/>
    </radialGradient>
    <radialGradient id="sphere" cx="36%" cy="32%" r="72%">
      <stop offset="0%" stop-color="#ffffff" stop-opacity=".28"/>
      <stop offset="100%" stop-color="#000000" stop-opacity=".18"/>
    </radialGradient>
  </defs>
  <rect width="800" height="1000" fill="url(#halo)"/>
  <path d="M300 250 h200 q56 0 56 58 v390 q0 60 -56 60 H300 q-56 0 -56 -60 V308 q0 -58 56 -58 z"
            fill="#a9a29a" stroke="#7d766e" stroke-width="6"/>
      <g fill="#ded8cf" opacity=".45">
        <rect x="266" y="286" width="268" height="58" rx="29"/>
        <rect x="266" y="366" width="268" height="58" rx="29"/>
        <rect x="266" y="536" width="268" height="58" rx="29"/>
        <rect x="266" y="616" width="268" height="58" rx="29"/>
      </g>
      <ellipse cx="400" cy="480" rx="118" ry="66" fill="#8a6f49" opacity=".8"/>
      <path d="M244 400 h-64 M556 400 h64 M244 560 h-64 M556 560 h64"
            stroke="#7d766e" stroke-width="14" stroke-linecap="round" opacity=".8"/>
  <ellipse cx="400" cy="742" rx="176" ry="20" fill="#000000" opacity=".2"/>
</svg>
