<!--
  PLACEHOLDER — development artwork, awaiting real product photography.
  Generated by scripts/generate-brand-bat-placeholders.mjs (JK, variant 2).
  Do not retouch by hand: re-run the script, or replace this file with the real
  photograph at the same path and drop `isPlaceholder` from the entry in
  data/placeholder-brand-bats.ts.
-->
<svg xmlns="http://www.w3.org/2000/svg" viewBox="0 0 800 1000" width="800" height="1000" role="img">
  <defs>
    <linearGradient id="studio" x1="50%" y1="0%" x2="50%" y2="100%">
      <stop offset="0%" stop-color="#faf8f5"/>
      <stop offset="100%" stop-color="#ebe4da"/>
    </linearGradient>
    <linearGradient id="wood" x1="0%" y1="0%" x2="100%" y2="0%">
      <stop offset="0%" stop-color="#c9ab7c"/>
      <stop offset="50%" stop-color="#ecd9b0"/>
      <stop offset="100%" stop-color="#a8844a"/>
    </linearGradient>
    <linearGradient id="grip" x1="0%" y1="0%" x2="100%" y2="0%">
      <stop offset="0%" stop-color="#1d4ed8" stop-opacity="0.75"/>
      <stop offset="50%" stop-color="#1d4ed8"/>
      <stop offset="100%" stop-color="#1d4ed8" stop-opacity="0.75"/>
    </linearGradient>
  </defs>

  <rect width="100%" height="100%" fill="url(#studio)"/>

  <!-- contact shadow -->
  <ellipse cx="400" cy="906" rx="61" ry="12" fill="#1c1b19" opacity="0.13"/>

  <!-- handle -->
  <rect x="388" y="150" width="24" height="250" rx="11" fill="#d8cbb4"/>
  <rect x="388" y="168" width="24" height="214" rx="10" fill="url(#grip)"/>
  <rect x="388" y="186" width="24" height="7" rx="3" fill="#ffffff" opacity="0.22"/>
  <rect x="388" y="226" width="24" height="7" rx="3" fill="#ffffff" opacity="0.22"/>
  <rect x="388" y="266" width="24" height="7" rx="3" fill="#ffffff" opacity="0.22"/>
  <rect x="388" y="306" width="24" height="7" rx="3" fill="#ffffff" opacity="0.22"/>
  <rect x="388" y="346" width="24" height="7" rx="3" fill="#ffffff" opacity="0.22"/>

  <!-- splice -->
  <path d="M400 388 L373 452 L427 452 Z" fill="#a8844a" opacity="0.4"/>

  <!-- blade -->
  <path d="M365 440 L435 440 L432 830 Q430 886 413 892 L387 892 Q370 886 368 830 Z" fill="url(#wood)"/>
  <!-- grain -->
  <line x1="374.0" y1="452" x2="374.0" y2="880" stroke="#8a6b3c" stroke-width="1" opacity="0.16"/>
  <line x1="384.4" y1="452" x2="384.4" y2="880" stroke="#8a6b3c" stroke-width="1" opacity="0.16"/>
  <line x1="394.8" y1="452" x2="394.8" y2="880" stroke="#8a6b3c" stroke-width="1" opacity="0.16"/>
  <line x1="405.2" y1="452" x2="405.2" y2="880" stroke="#8a6b3c" stroke-width="1" opacity="0.16"/>
  <line x1="415.6" y1="452" x2="415.6" y2="880" stroke="#8a6b3c" stroke-width="1" opacity="0.16"/>
  <line x1="426.0" y1="452" x2="426.0" y2="880" stroke="#8a6b3c" stroke-width="1" opacity="0.16"/>
  <!-- toe guard -->
  <path d="M387 892 L413 892 L411 900 L389 900 Z" fill="#3d2914" opacity="0.65"/>

  <text x="400" y="958" fill="#8a847c" font-family="system-ui,-apple-system,sans-serif" font-size="20" font-weight="600" letter-spacing="1.5" text-anchor="middle">JK WARRIOR</text>
</svg>
